<svg width="1144.6630859375px" height="122px" xmlns="http://www.w3.org/2000/svg" viewBox="-322.33154296875 14 1144.6630859375 122" style="background: rgba(0, 0, 0, 0);" preserveAspectRatio="xMidYMid"><defs><filter id="editing-metal-beveled"><feGaussianBlur stdDeviation="4" in="SourceAlpha" result="blur"></feGaussianBlur><feSpecularLighting surfaceScale="5" specularConstant="0.8" specularExponent="7.5" lighting-color="#fff" in="blur" result="specular"><fePointLight x="-250" y="-50" z="300"></fePointLight></feSpecularLighting><feComposite operator="in" in="specular" in2="SourceAlpha" result="comp"></feComposite><feComposite in="SourceGraphic" in2="comp" operator="arithmetic" k1="0" k2="1" k3="1" k4="0"></feComposite></filter></defs><g filter="url(#editing-metal-beveled)"><g transform="translate(-164.37973165512085, 104.76000022888184)"><path d="M6.21-31.17L6.21-31.17L6.21-31.17Q4.03-32.83 4.03-36.38L4.03-36.38L4.03-36.38Q4.03-39.94 6.37-41.79L6.37-41.79L6.37-41.79Q8.70-43.65 12.74-43.65L12.74-43.65L12.74-43.65Q15.30-43.65 21.38-42.75L21.38-42.75L25.73-42.11L25.73-42.11Q27.90-41.86 30.18-41.86L30.18-41.86L30.18-41.86Q32.45-41.86 33.98-42.82L33.98-42.82L33.98-42.82Q36.29-40.77 36.29-37.82L36.29-37.82L36.29-37.82Q36.29-34.88 33.66-32.77L33.66-32.77L33.66-32.77Q30.98-30.53 27.52-30.53L27.52-30.53L27.52-30.53Q25.86-30.53 23.17-30.98L23.17-30.98L23.17-30.98Q20.03-21.12 20.03-14.27L20.03-14.27L20.03-14.27Q20.03-7.42 23.49-3.84L23.49-3.84L23.49-3.84Q21.89-0.96 19.52 0.16L19.52 0.16L19.52 0.16Q17.15 1.28 13.60 1.28L13.60 1.28L13.60 1.28Q10.05 1.28 7.84-0.67L7.84-0.67L7.84-0.67Q5.63-2.62 5.63-6.66L5.63-6.66L5.63-6.66Q5.63-11.33 8.19-19.01L8.19-19.01L8.19-19.01Q10.75-26.62 14.59-32.45L14.59-32.45L14.59-32.45Q12.74-32.64 10.82-32.64L10.82-32.64L10.82-32.64Q6.85-32.64 6.21-31.17ZM54.40-2.69L54.40-2.69L54.40-2.69Q51.33 1.28 43.71 1.28L43.71 1.28L43.71 1.28Q39.74 1.28 36.86-1.12L36.86-1.12L36.86-1.12Q33.98-3.52 33.98-6.98L33.98-6.98L33.98-6.98Q33.98-8.90 34.18-9.86L34.18-9.86L38.46-32.64L51.46-33.92L46.78-9.22L46.78-9.22Q46.53-7.81 46.53-6.98L46.53-6.98L46.53-6.98Q46.53-3.26 48.77-3.26L48.77-3.26L48.77-3.26Q51.26-3.26 53.06-6.66L53.06-6.66L53.06-6.66Q53.63-7.74 53.89-9.15L53.89-9.15L58.43-32.64L71.04-33.92L66.30-8.96L66.30-8.96Q66.11-8 66.11-6.98L66.11-6.98L66.11-6.98Q66.11-5.95 66.69-4.83L66.69-4.83L66.69-4.83Q67.26-3.71 69.12-3.46L69.12-3.46L69.12-3.46Q68.74-1.92 67.39-0.90L67.39-0.90L67.39-0.90Q64.58 1.28 61.54 1.28L61.54 1.28L61.54 1.28Q58.50 1.28 56.70 0.19L56.70 0.19L56.70 0.19Q54.91-0.90 54.40-2.69ZM93.63-22.46L93.63-22.46L93.63-22.46Q94.53-24.83 94.53-26.88L94.53-26.88L94.53-26.88Q94.53-30.66 91.46-30.66L91.46-30.66L91.46-30.66Q89.86-30.66 88.54-29.22L88.54-29.22L88.54-29.22Q87.23-27.78 87.23-25.98L87.23-25.98L87.23-25.98Q87.23-24.70 88.26-23.68L88.26-23.68L88.26-23.68Q89.73-22.27 93.50-19.97L93.50-19.97L93.50-19.97Q97.28-17.66 98.72-15.78L98.72-15.78L98.72-15.78Q100.16-13.89 100.16-11.30L100.16-11.30L100.16-11.30Q100.16-8.70 98.91-6.34L98.91-6.34L98.91-6.34Q97.66-3.97 95.42-2.30L95.42-2.30L95.42-2.30Q90.62 1.28 82.94 1.28L82.94 1.28L82.94 1.28Q78.78 1.28 75.58-0.90L75.58-0.90L75.58-0.90Q72.38-3.01 72.38-5.50L72.38-5.50L72.38-5.50Q72.38-8 74.21-9.47L74.21-9.47L74.21-9.47Q76.03-10.94 78.72-10.94L78.72-10.94L78.72-10.94Q81.41-10.94 83.07-9.92L83.07-9.92L83.07-9.92Q82.24-7.81 82.24-6.40L82.24-6.40L82.24-6.40Q82.24-2.18 85.82-2.18L85.82-2.18L85.82-2.18Q87.36-2.18 88.38-3.14L88.38-3.14L88.38-3.14Q89.41-4.10 89.41-5.76L89.41-5.76L89.41-5.76Q89.41-9.02 83.90-12.48L83.90-12.48L83.90-12.48Q79.42-15.42 78.40-16.58L78.40-16.58L78.40-16.58Q76.67-18.62 76.67-21.18L76.67-21.18L76.67-21.18Q76.67-23.74 77.89-26.18L77.89-26.18L77.89-26.18Q79.10-28.61 81.34-30.34L81.34-30.34L81.34-30.34Q86.02-33.92 94.14-33.92L94.14-33.92L94.14-33.92Q98.30-33.92 100.77-32.26L100.77-32.26L100.77-32.26Q103.23-30.59 103.23-27.78L103.23-27.78L103.23-27.78Q103.23-24.96 101.54-23.36L101.54-23.36L101.54-23.36Q99.84-21.76 96.77-21.76L96.77-21.76L96.77-21.76Q94.66-21.76 93.63-22.46ZM125.38 0L118.34 0L126.02-42.24L139.78-42.24L149.76-13.18L155.07-42.24L162.18-42.18L154.37 0L139.71 0L130.50-27.97L125.38 0ZM177.73 1.28L177.73 1.28L177.73 1.28Q163.65 1.28 163.65-11.97L163.65-11.97L163.65-11.97Q163.65-21.38 168.83-27.46L168.83-27.46L168.83-27.46Q174.34-33.92 183.87-33.92L183.87-33.92L183.87-33.92Q190.78-33.92 194.30-30.72L194.30-30.72L194.30-30.72Q197.82-27.52 197.82-20.80L197.82-20.80L197.82-20.80Q197.82-10.56 192.32-4.61L192.32-4.61L192.32-4.61Q186.94 1.28 177.73 1.28ZM179.39-26.56L179.39-26.56L179.39-26.56Q178.62-24.83 178.02-22.24L178.02-22.24L178.02-22.24Q177.41-19.65 176.64-15.55L176.64-15.55L176.64-15.55Q175.87-11.46 175.87-6.40L175.87-6.40L175.87-6.40Q175.87-4.74 176.42-3.65L176.42-3.65L176.42-3.65Q176.96-2.56 178.43-2.56L178.43-2.56L178.43-2.56Q179.90-2.56 180.83-3.26L180.83-3.26L180.83-3.26Q181.76-3.97 182.46-5.63L182.46-5.63L182.46-5.63Q183.74-8.58 184.77-14.05L184.77-14.05L184.77-14.05Q185.79-19.52 185.89-21.89L185.89-21.89L185.89-21.89Q185.98-24.26 185.98-26.02L185.98-26.02L185.98-26.02Q185.98-27.78 185.47-28.93L185.47-28.93L185.47-28.93Q184.96-30.08 183.52-30.08L183.52-30.08L183.52-30.08Q182.08-30.08 181.12-29.18L181.12-29.18L181.12-29.18Q180.16-28.29 179.39-26.56ZM202.62-6.40L202.62-6.40L202.62-6.40Q202.62-8.13 203.52-12.48L203.52-12.48L206.91-29.76L203.14-29.76L203.39-31.68L203.39-31.68Q211.07-33.98 218.50-39.62L218.50-39.62L221.57-39.62L220.03-32.64L225.02-32.64L224.45-29.76L219.52-29.76L216.26-12.48L216.26-12.48Q215.42-8.51 215.42-7.17L215.42-7.17L215.42-7.17Q215.42-4.10 218.11-3.46L218.11-3.46L218.11-3.46Q217.47-1.28 215.17 0L215.17 0L215.17 0Q212.86 1.28 209.60 1.28L209.60 1.28L209.60 1.28Q206.34 1.28 204.48-0.77L204.48-0.77L204.48-0.77Q202.62-2.82 202.62-6.40ZM240.06-3.52L240.06-3.52L240.06-3.52Q238.08 1.28 231.74 1.28L231.74 1.28L231.74 1.28Q228.48 1.28 226.43-0.96L226.43-0.96L226.43-0.96Q224.70-2.94 224.70-4.93L224.70-4.93L224.70-4.93Q224.70-10.11 227.07-20.22L227.07-20.22L229.44-32.64L242.43-33.92L238.53-13.70L238.53-13.70Q237.44-8.96 237.44-7.30L237.44-7.30L237.44-7.30Q237.44-3.65 240.06-3.52ZM230.59-41.54L230.59-41.54L230.59-41.54Q230.59-44.03 232.67-45.38L232.67-45.38L232.67-45.38Q234.75-46.72 237.76-46.72L237.76-46.72L237.76-46.72Q240.77-46.72 242.59-45.38L242.59-45.38L242.59-45.38Q244.42-44.03 244.42-41.54L244.42-41.54L244.42-41.54Q244.42-39.04 242.40-37.76L242.40-37.76L242.40-37.76Q240.38-36.48 237.38-36.48L237.38-36.48L237.38-36.48Q234.37-36.48 232.48-37.76L232.48-37.76L232.48-37.76Q230.59-39.04 230.59-41.54ZM276.93-26.62L276.93-26.62L276.93-26.62Q276.93-23.94 274.69-22.27L274.69-22.27L274.69-22.27Q272.45-20.61 268.80-20.61L268.80-20.61L268.80-20.61Q267.26-20.61 266.37-21.06L266.37-21.06L266.37-21.06Q267.07-22.72 267.30-24.80L267.30-24.80L267.30-24.80Q267.52-26.88 267.52-27.46L267.52-27.46L267.52-27.46Q267.52-30.14 265.66-30.14L265.66-30.14L265.66-30.14Q264.38-30.14 262.94-28.54L262.94-28.54L262.94-28.54Q261.50-26.94 260.29-24.45L260.29-24.45L260.29-24.45Q257.60-18.69 257.60-12.86L257.60-12.86L257.60-12.86Q257.60-9.66 258.82-8.22L258.82-8.22L258.82-8.22Q260.03-6.78 262.72-6.78L262.72-6.78L262.72-6.78Q266.43-6.78 269.38-9.86L269.38-9.86L269.38-9.86Q270.21-10.82 270.66-11.90L270.66-11.90L270.66-11.90Q273.09-10.62 273.09-7.10L273.09-7.10L273.09-7.10Q273.09-3.52 269.12-1.15L269.12-1.15L269.12-1.15Q265.02 1.28 258.50 1.28L258.50 1.28L258.50 1.28Q245.50 1.28 245.50-12.48L245.50-12.48L245.50-12.48Q245.50-22.53 251.20-28.29L251.20-28.29L251.20-28.29Q256.70-33.92 266.82-33.92L266.82-33.92L266.82-33.92Q276.93-33.92 276.93-26.62ZM294.02-3.52L294.02-3.52L294.02-3.52Q292.03 1.28 285.70 1.28L285.70 1.28L285.70 1.28Q282.43 1.28 280.38-0.96L280.38-0.96L280.38-0.96Q278.66-2.94 278.66-4.93L278.66-4.93L278.66-4.93Q278.66-10.11 281.02-20.22L281.02-20.22L283.39-32.64L296.38-33.92L292.48-13.70L292.48-13.70Q291.39-8.96 291.39-7.30L291.39-7.30L291.39-7.30Q291.39-3.65 294.02-3.52ZM284.54-41.54L284.54-41.54L284.54-41.54Q284.54-44.03 286.62-45.38L286.62-45.38L286.62-45.38Q288.70-46.72 291.71-46.72L291.71-46.72L291.71-46.72Q294.72-46.72 296.54-45.38L296.54-45.38L296.54-45.38Q298.37-44.03 298.37-41.54L298.37-41.54L298.37-41.54Q298.37-39.04 296.35-37.76L296.35-37.76L296.35-37.76Q294.34-36.48 291.33-36.48L291.33-36.48L291.33-36.48Q288.32-36.48 286.43-37.76L286.43-37.76L286.43-37.76Q284.54-39.04 284.54-41.54ZM302.24-1.92L302.24-1.92L302.24-1.92Q300.74-3.58 300.06-6.21L300.06-6.21L300.06-6.21Q299.39-8.83 299.39-13.12L299.39-13.12L299.39-13.12Q299.39-17.41 300.86-21.31L300.86-21.31L300.86-21.31Q302.34-25.22 305.02-28.03L305.02-28.03L305.02-28.03Q310.53-33.92 319.62-33.92L319.62-33.92L319.62-33.92Q322.88-33.92 325.25-32.83L325.25-32.83L336.19-33.92L331.46-8.96L331.46-8.96Q331.26-8.19 331.26-6.78L331.26-6.78L331.26-6.78Q331.26-5.38 332.13-4.48L332.13-4.48L332.13-4.48Q332.99-3.58 334.27-3.46L334.27-3.46L334.27-3.46Q333.63-1.28 331.30 0L331.30 0L331.30 0Q328.96 1.28 326.34 1.28L326.34 1.28L326.34 1.28Q323.71 1.28 321.95 0.29L321.95 0.29L321.95 0.29Q320.19-0.70 319.68-2.37L319.68-2.37L319.68-2.37Q318.66-0.77 316.48 0.26L316.48 0.26L316.48 0.26Q314.30 1.28 311.39 1.28L311.39 1.28L311.39 1.28Q308.48 1.28 306.11 0.51L306.11 0.51L306.11 0.51Q303.74-0.26 302.24-1.92ZM315.74-27.90L315.74-27.90L315.74-27.90Q315.01-26.75 314.37-24.80L314.37-24.80L314.37-24.80Q313.73-22.85 312.67-17.63L312.67-17.63L312.67-17.63Q311.62-12.42 311.62-8.70L311.62-8.70L311.62-8.70Q311.62-4.99 312.19-3.90L312.19-3.90L312.19-3.90Q312.77-2.82 313.79-2.82L313.79-2.82L313.79-2.82Q315.84-2.82 317.34-4.77L317.34-4.77L317.34-4.77Q318.85-6.72 319.42-10.18L319.42-10.18L322.82-28.93L322.82-28.93Q321.47-30.08 319.90-30.08L319.90-30.08L319.90-30.08Q318.34-30.08 317.41-29.57L317.41-29.57L317.41-29.57Q316.48-29.06 315.74-27.90ZM358.78-22.46L358.78-22.46L358.78-22.46Q359.68-24.83 359.68-26.88L359.68-26.88L359.68-26.88Q359.68-30.66 356.61-30.66L356.61-30.66L356.61-30.66Q355.01-30.66 353.70-29.22L353.70-29.22L353.70-29.22Q352.38-27.78 352.38-25.98L352.38-25.98L352.38-25.98Q352.38-24.70 353.41-23.68L353.41-23.68L353.41-23.68Q354.88-22.27 358.66-19.97L358.66-19.97L358.66-19.97Q362.43-17.66 363.87-15.78L363.87-15.78L363.87-15.78Q365.31-13.89 365.31-11.30L365.31-11.30L365.31-11.30Q365.31-8.70 364.06-6.34L364.06-6.34L364.06-6.34Q362.82-3.97 360.58-2.30L360.58-2.30L360.58-2.30Q355.78 1.28 348.10 1.28L348.10 1.28L348.10 1.28Q343.94 1.28 340.74-0.90L340.74-0.90L340.74-0.90Q337.54-3.01 337.54-5.50L337.54-5.50L337.54-5.50Q337.54-8 339.36-9.47L339.36-9.47L339.36-9.47Q341.18-10.94 343.87-10.94L343.87-10.94L343.87-10.94Q346.56-10.94 348.22-9.92L348.22-9.92L348.22-9.92Q347.39-7.81 347.39-6.40L347.39-6.40L347.39-6.40Q347.39-2.18 350.98-2.18L350.98-2.18L350.98-2.18Q352.51-2.18 353.54-3.14L353.54-3.14L353.54-3.14Q354.56-4.10 354.56-5.76L354.56-5.76L354.56-5.76Q354.56-9.02 349.06-12.48L349.06-12.48L349.06-12.48Q344.58-15.42 343.55-16.58L343.55-16.58L343.55-16.58Q341.82-18.62 341.82-21.18L341.82-21.18L341.82-21.18Q341.82-23.74 343.04-26.18L343.04-26.18L343.04-26.18Q344.26-28.61 346.50-30.34L346.50-30.34L346.50-30.34Q351.17-33.92 359.30-33.92L359.30-33.92L359.30-33.92Q363.46-33.92 365.92-32.26L365.92-32.26L365.92-32.26Q368.38-30.59 368.38-27.78L368.38-27.78L368.38-27.78Q368.38-24.96 366.69-23.36L366.69-23.36L366.69-23.36Q364.99-21.76 361.92-21.76L361.92-21.76L361.92-21.76Q359.81-21.76 358.78-22.46ZM409.86-10.82L409.86-10.82L409.86-10.82Q411.46-9.73 411.46-7.33L411.46-7.33L411.46-7.33Q411.46-4.93 410.24-3.39L410.24-3.39L410.24-3.39Q409.02-1.86 407.04-0.83L407.04-0.83L407.04-0.83Q402.94 1.28 398.53 1.28L398.53 1.28L398.53 1.28Q394.11 1.28 391.52 0.32L391.52 0.32L391.52 0.32Q388.93-0.64 387.20-2.43L387.20-2.43L387.20-2.43Q383.81-5.82 383.81-12.03L383.81-12.03L383.81-12.03Q383.81-21.70 389.06-27.58L389.06-27.58L389.06-27.58Q394.69-33.92 404.48-33.92L404.48-33.92L404.48-33.92Q410.56-33.92 413.57-31.36L413.57-31.36L413.57-31.36Q415.81-29.44 415.81-26.30L415.81-26.30L415.81-26.30Q415.81-15.04 396.35-15.04L396.35-15.04L396.35-15.04Q396.10-13.38 396.10-11.97L396.10-11.97L396.10-11.97Q396.10-9.02 397.41-7.90L397.41-7.90L397.41-7.90Q398.72-6.78 401.15-6.78L401.15-6.78L401.15-6.78Q403.58-6.78 406.18-7.90L406.18-7.90L406.18-7.90Q408.77-9.02 409.86-10.82ZM396.80-17.79L396.80-17.79L396.80-17.79Q401.34-17.79 403.97-20.61L403.97-20.61L403.97-20.61Q406.59-23.30 406.59-27.58L406.59-27.58L406.59-27.58Q406.59-29.06 406.05-29.86L406.05-29.86L406.05-29.86Q405.50-30.66 404.42-30.66L404.42-30.66L404.42-30.66Q403.33-30.66 402.40-30.24L402.40-30.24L402.40-30.24Q401.47-29.82 400.51-28.42L400.51-28.42L400.51-28.42Q398.14-25.22 396.80-17.79ZM445.06 1.28L445.06 1.28L445.06 1.28Q437.31 1.28 437.31-4.74L437.31-4.74L437.31-4.74Q437.38-6.40 437.89-9.22L437.89-9.22L439.04-15.10L439.04-15.10Q440.77-23.42 440.77-25.28L440.77-25.28L440.77-25.28Q440.77-28.99 438.59-28.99L438.59-28.99L438.59-28.99Q434.94-28.99 433.02-19.46L433.02-19.46L429.25 0L416.38 1.28L423.04-32.70L433.54-33.92L432.51-27.65L432.51-27.65Q435.52-33.92 444.74-33.92L444.74-33.92L444.74-33.92Q449.22-33.92 451.10-32.03L451.10-32.03L451.10-32.03Q452.99-30.14 452.99-25.92L452.99-25.92L452.99-25.92Q452.99-21.95 450.94-12.67L450.94-12.67L450.94-12.67Q449.98-8.51 449.98-6.94L449.98-6.94L449.98-6.94Q449.98-5.38 450.85-4.48L450.85-4.48L450.85-4.48Q451.71-3.58 452.99-3.46L452.99-3.46L452.99-3.46Q452.35-1.28 450.14 0L450.14 0L450.14 0Q447.94 1.28 445.06 1.28ZM472.32-6.40L472.32-6.40L472.32-6.40Q472.32-8.13 473.22-12.48L473.22-12.48L476.61-29.76L472.83-29.76L473.09-31.68L473.09-31.68Q480.77-33.98 488.19-39.62L488.19-39.62L491.26-39.62L489.73-32.64L494.72-32.64L494.14-29.76L489.22-29.76L485.95-12.48L485.95-12.48Q485.12-8.51 485.12-7.17L485.12-7.17L485.12-7.17Q485.12-4.10 487.81-3.46L487.81-3.46L487.81-3.46Q487.17-1.28 484.86 0L484.86 0L484.86 0Q482.56 1.28 479.30 1.28L479.30 1.28L479.30 1.28Q476.03 1.28 474.18-0.77L474.18-0.77L474.18-0.77Q472.32-2.82 472.32-6.40ZM509.76-3.52L509.76-3.52L509.76-3.52Q507.78 1.28 501.44 1.28L501.44 1.28L501.44 1.28Q498.18 1.28 496.13-0.96L496.13-0.96L496.13-0.96Q494.40-2.94 494.40-4.93L494.40-4.93L494.40-4.93Q494.40-10.11 496.77-20.22L496.77-20.22L499.14-32.64L512.13-33.92L508.22-13.70L508.22-13.70Q507.14-8.96 507.14-7.30L507.14-7.30L507.14-7.30Q507.14-3.65 509.76-3.52ZM500.29-41.54L500.29-41.54L500.29-41.54Q500.29-44.03 502.37-45.38L502.37-45.38L502.37-45.38Q504.45-46.72 507.46-46.72L507.46-46.72L507.46-46.72Q510.46-46.72 512.29-45.38L512.29-45.38L512.29-45.38Q514.11-44.03 514.11-41.54L514.11-41.54L514.11-41.54Q514.11-39.04 512.10-37.76L512.10-37.76L512.10-37.76Q510.08-36.48 507.07-36.48L507.07-36.48L507.07-36.48Q504.06-36.48 502.18-37.76L502.18-37.76L502.18-37.76Q500.29-39.04 500.29-41.54ZM541.12-10.82L541.12-10.82L541.12-10.82Q542.72-9.73 542.72-7.33L542.72-7.33L542.72-7.33Q542.72-4.93 541.50-3.39L541.50-3.39L541.50-3.39Q540.29-1.86 538.30-0.83L538.30-0.83L538.30-0.83Q534.21 1.28 529.79 1.28L529.79 1.28L529.79 1.28Q525.38 1.28 522.78 0.32L522.78 0.32L522.78 0.32Q520.19-0.64 518.46-2.43L518.46-2.43L518.46-2.43Q515.07-5.82 515.07-12.03L515.07-12.03L515.07-12.03Q515.07-21.70 520.32-27.58L520.32-27.58L520.32-27.58Q525.95-33.92 535.74-33.92L535.74-33.92L535.74-33.92Q541.82-33.92 544.83-31.36L544.83-31.36L544.83-31.36Q547.07-29.44 547.07-26.30L547.07-26.30L547.07-26.30Q547.07-15.04 527.62-15.04L527.62-15.04L527.62-15.04Q527.36-13.38 527.36-11.97L527.36-11.97L527.36-11.97Q527.36-9.02 528.67-7.90L528.67-7.90L528.67-7.90Q529.98-6.78 532.42-6.78L532.42-6.78L532.42-6.78Q534.85-6.78 537.44-7.90L537.44-7.90L537.44-7.90Q540.03-9.02 541.12-10.82ZM528.06-17.79L528.06-17.79L528.06-17.79Q532.61-17.79 535.23-20.61L535.23-20.61L535.23-20.61Q537.86-23.30 537.86-27.58L537.86-27.58L537.86-27.58Q537.86-29.06 537.31-29.86L537.31-29.86L537.31-29.86Q536.77-30.66 535.68-30.66L535.68-30.66L535.68-30.66Q534.59-30.66 533.66-30.24L533.66-30.24L533.66-30.24Q532.74-29.82 531.78-28.42L531.78-28.42L531.78-28.42Q529.41-25.22 528.06-17.79ZM595.33 1.28L595.33 1.28L595.33 1.28Q587.58 1.28 587.58-4.74L587.58-4.74L587.58-4.74Q587.58-7.36 588.70-12.45L588.70-12.45L588.70-12.45Q589.82-17.54 590.21-19.58L590.21-19.58L590.21-19.58Q591.10-24.26 591.10-25.73L591.10-25.73L591.10-25.73Q591.10-28.99 588.67-28.99L588.67-28.99L588.67-28.99Q587.07-28.99 585.54-26.78L585.54-26.78L585.54-26.78Q584-24.58 583.30-20.16L583.30-20.16L579.33 0L566.85 1.28L570.30-16.13L570.30-16.13Q570.88-19.01 571.39-22.27L571.39-22.27L571.39-22.27Q571.90-25.54 571.90-26.05L571.90-26.05L571.90-26.05Q571.90-28.99 569.73-28.99L569.73-28.99L569.73-28.99Q568.26-28.99 566.66-26.82L566.66-26.82L566.66-26.82Q565.06-24.64 564.16-20.16L564.16-20.16L560.26 0L547.65 1.28L554.37-32.64L564.80-33.92L563.71-27.46L563.71-27.46Q565.38-30.91 568.45-32.42L568.45-32.42L568.45-32.42Q571.52-33.92 576.32-33.92L576.32-33.92L576.32-33.92Q579.07-33.92 580.86-32.58L580.86-32.58L580.86-32.58Q582.66-31.23 583.23-29.06L583.23-29.06L583.23-29.06Q584.32-31.30 587.10-32.61L587.10-32.61L587.10-32.61Q589.89-33.92 593.31-33.92L593.31-33.92L593.31-33.92Q596.74-33.92 598.43-33.18L598.43-33.18L598.43-33.18Q600.13-32.45 601.15-31.23L601.15-31.23L601.15-31.23Q602.88-28.99 602.88-24.90L602.88-24.90L602.88-24.90Q602.88-20.86 601.15-12.48L601.15-12.48L601.15-12.48Q600.26-8.38 600.26-6.88L600.26-6.88L600.26-6.88Q600.26-5.38 601.12-4.48L601.12-4.48L601.12-4.48Q601.98-3.58 603.26-3.46L603.26-3.46L603.26-3.46Q602.62-1.28 600.42 0L600.42 0L600.42 0Q598.21 1.28 595.33 1.28ZM638.02-4.38L638.02-4.38L638.02-4.38Q635.33-1.66 631.65-0.19L631.65-0.19L631.65-0.19Q627.97 1.28 624.32 1.28L624.32 1.28L624.32 1.28Q620.67 1.28 619.39 0.64L619.39 0.64L617.41 11.52L604.42 12.80L613.25-32.64L623.68-33.73L622.85-29.31L622.85-29.31Q625.54-33.86 631.10-33.86L631.10-33.86L631.10-33.86Q637.38-33.86 640.70-29.82L640.70-29.82L640.70-29.82Q643.65-26.18 643.65-20.61L643.65-20.61L643.65-20.61Q643.65-15.04 642.18-11.07L642.18-11.07L642.18-11.07Q640.70-7.10 638.02-4.38ZM623.55-22.34L620.16-3.58L620.16-3.58Q621.50-2.43 623.17-2.43L623.17-2.43L623.17-2.43Q624.83-2.43 625.79-3.07L625.79-3.07L625.79-3.07Q626.75-3.71 627.46-4.99L627.46-4.99L627.46-4.99Q629.38-8.45 630.91-18.94L630.91-18.94L630.91-18.94Q631.36-22.02 631.36-25.02L631.36-25.02L631.36-25.02Q631.36-28.03 630.69-28.99L630.69-28.99L630.69-28.99Q630.02-29.95 628.74-29.95L628.74-29.95L628.74-29.95Q624.83-29.95 623.55-22.34L623.55-22.34ZM661.44 1.28L661.44 1.28L661.44 1.28Q647.36 1.28 647.36-11.97L647.36-11.97L647.36-11.97Q647.36-21.38 652.54-27.46L652.54-27.46L652.54-27.46Q658.05-33.92 667.58-33.92L667.58-33.92L667.58-33.92Q674.50-33.92 678.02-30.72L678.02-30.72L678.02-30.72Q681.54-27.52 681.54-20.80L681.54-20.80L681.54-20.80Q681.54-10.56 676.03-4.61L676.03-4.61L676.03-4.61Q670.66 1.28 661.44 1.28ZM663.10-26.56L663.10-26.56L663.10-26.56Q662.34-24.83 661.73-22.24L661.73-22.24L661.73-22.24Q661.12-19.65 660.35-15.55L660.35-15.55L660.35-15.55Q659.58-11.46 659.58-6.40L659.58-6.40L659.58-6.40Q659.58-4.74 660.13-3.65L660.13-3.65L660.13-3.65Q660.67-2.56 662.14-2.56L662.14-2.56L662.14-2.56Q663.62-2.56 664.54-3.26L664.54-3.26L664.54-3.26Q665.47-3.97 666.18-5.63L666.18-5.63L666.18-5.63Q667.46-8.58 668.48-14.05L668.48-14.05L668.48-14.05Q669.50-19.52 669.60-21.89L669.60-21.89L669.60-21.89Q669.70-24.26 669.70-26.02L669.70-26.02L669.70-26.02Q669.70-27.78 669.18-28.93L669.18-28.93L669.18-28.93Q668.67-30.08 667.23-30.08L667.23-30.08L667.23-30.08Q665.79-30.08 664.83-29.18L664.83-29.18L664.83-29.18Q663.87-28.29 663.10-26.56ZM718.53-17.98L718.53-17.98L718.53-17.98Q720.83-22.08 720.83-26.24L720.83-26.24L720.83-26.24Q720.83-28.99 718.85-28.99L718.85-28.99L718.85-28.99Q717.31-28.99 715.71-26.37L715.71-26.37L715.71-26.37Q714.05-23.74 713.54-20.35L713.54-20.35L710.21 0L696.96 1.28L703.49-32.64L714.05-33.92L712.90-27.46L712.90-27.46Q716.03-33.92 723.07-33.92L723.07-33.92L723.07-33.92Q726.78-33.92 728.80-32L728.80-32L728.80-32Q730.82-30.08 730.82-26.14L730.82-26.14L730.82-26.14Q730.82-22.21 728.22-19.71L728.22-19.71L728.22-19.71Q725.63-17.22 721.22-17.22L721.22-17.22L721.22-17.22Q719.30-17.22 718.53-17.98ZM757.76-10.82L757.76-10.82L757.76-10.82Q759.36-9.73 759.36-7.33L759.36-7.33L759.36-7.33Q759.36-4.93 758.14-3.39L758.14-3.39L758.14-3.39Q756.93-1.86 754.94-0.83L754.94-0.83L754.94-0.83Q750.85 1.28 746.43 1.28L746.43 1.28L746.43 1.28Q742.02 1.28 739.42 0.32L739.42 0.32L739.42 0.32Q736.83-0.64 735.10-2.43L735.10-2.43L735.10-2.43Q731.71-5.82 731.71-12.03L731.71-12.03L731.71-12.03Q731.71-21.70 736.96-27.58L736.96-27.58L736.96-27.58Q742.59-33.92 752.38-33.92L752.38-33.92L752.38-33.92Q758.46-33.92 761.47-31.36L761.47-31.36L761.47-31.36Q763.71-29.44 763.71-26.30L763.71-26.30L763.71-26.30Q763.71-15.04 744.26-15.04L744.26-15.04L744.26-15.04Q744-13.38 744-11.97L744-11.97L744-11.97Q744-9.02 745.31-7.90L745.31-7.90L745.31-7.90Q746.62-6.78 749.06-6.78L749.06-6.78L749.06-6.78Q751.49-6.78 754.08-7.90L754.08-7.90L754.08-7.90Q756.67-9.02 757.76-10.82ZM744.70-17.79L744.70-17.79L744.70-17.79Q749.25-17.79 751.87-20.61L751.87-20.61L751.87-20.61Q754.50-23.30 754.50-27.58L754.50-27.58L754.50-27.58Q754.50-29.06 753.95-29.86L753.95-29.86L753.95-29.86Q753.41-30.66 752.32-30.66L752.32-30.66L752.32-30.66Q751.23-30.66 750.30-30.24L750.30-30.24L750.30-30.24Q749.38-29.82 748.42-28.42L748.42-28.42L748.42-28.42Q746.05-25.22 744.70-17.79ZM768.67-1.92L768.67-1.92L768.67-1.92Q767.17-3.58 766.50-6.21L766.50-6.21L766.50-6.21Q765.82-8.83 765.82-13.12L765.82-13.12L765.82-13.12Q765.82-17.41 767.30-21.31L767.30-21.31L767.30-21.31Q768.77-25.22 771.46-28.03L771.46-28.03L771.46-28.03Q776.96-33.92 786.05-33.92L786.05-33.92L786.05-33.92Q789.31-33.92 791.68-32.83L791.68-32.83L802.62-33.92L797.89-8.96L797.89-8.96Q797.70-8.19 797.70-6.78L797.70-6.78L797.70-6.78Q797.70-5.38 798.56-4.48L798.56-4.48L798.56-4.48Q799.42-3.58 800.70-3.46L800.70-3.46L800.70-3.46Q800.06-1.28 797.73 0L797.73 0L797.73 0Q795.39 1.28 792.77 1.28L792.77 1.28L792.77 1.28Q790.14 1.28 788.38 0.29L788.38 0.29L788.38 0.29Q786.62-0.70 786.11-2.37L786.11-2.37L786.11-2.37Q785.09-0.77 782.91 0.26L782.91 0.26L782.91 0.26Q780.74 1.28 777.82 1.28L777.82 1.28L777.82 1.28Q774.91 1.28 772.54 0.51L772.54 0.51L772.54 0.51Q770.18-0.26 768.67-1.92ZM782.18-27.90L782.18-27.90L782.18-27.90Q781.44-26.75 780.80-24.80L780.80-24.80L780.80-24.80Q780.16-22.85 779.10-17.63L779.10-17.63L779.10-17.63Q778.05-12.42 778.05-8.70L778.05-8.70L778.05-8.70Q778.05-4.99 778.62-3.90L778.62-3.90L778.62-3.90Q779.20-2.82 780.22-2.82L780.22-2.82L780.22-2.82Q782.27-2.82 783.78-4.77L783.78-4.77L783.78-4.77Q785.28-6.72 785.86-10.18L785.86-10.18L789.25-28.93L789.25-28.93Q787.90-30.08 786.34-30.08L786.34-30.08L786.34-30.08Q784.77-30.08 783.84-29.57L783.84-29.57L783.84-29.57Q782.91-29.06 782.18-27.90ZM821.38-3.52L821.38-3.52L821.38-3.52Q819.39 1.28 813.06 1.28L813.06 1.28L813.06 1.28Q809.86 1.28 807.81-0.96L807.81-0.96L807.81-0.96Q806.14-2.82 806.14-4.93L806.14-4.93L806.14-4.93Q806.14-9.73 808.38-20.22L808.38-20.22L813.06-44.80L826.05-46.08L819.84-13.70L819.84-13.70Q818.75-8.96 818.75-7.30L818.75-7.30L818.75-7.30Q818.75-3.65 821.38-3.52Z" fill="#444"></path></g></g><style>text {
  font-size: 64px;
  font-family: Arial Black;
  dominant-baseline: central;
  text-anchor: middle;
}</style></svg>